<svg xmlns="http://www.w3.org/2000/svg" viewBox="0 0 1617.91 321.04"><defs><style>.cls-1{fill:#2dad68;opacity:0.8;}.cls-1,.cls-2{fill-rule:evenodd;}.cls-2{fill:#8d8f8e;}</style></defs><g id="Capa_2" data-name="Capa 2"><g id="Capa_1-2" data-name="Capa 1"><path class="cls-1" d="M856.34,306.33q-48.83,23.49-99.77,5.65t-74.46-66.66q-23.37-48.78-5.53-99.73T743.1,71.15q48.67-23.48,99.76-5.59A126.85,126.85,0,0,1,887.35,92a133.78,133.78,0,0,1,30,40.16l-58.85,28.32a62.9,62.9,0,0,0-37.27-33.31q-25.53-8.94-49.82,2.74t-33.23,37.23Q729.33,192.58,741,217t37.18,33.36q25.41,8.89,49.87-2.87t33.35-37.19L923,231.88Q905.16,282.84,856.34,306.33Z"/><path class="cls-2" d="M1056.83,251.54h-31.6V243c-.8.47-1.55.91-2.26,1.3a68.22,68.22,0,0,1-67.42,0,62.51,62.51,0,0,1-24.95-24.94,68.25,68.25,0,0,1,.18-67.54A61.73,61.73,0,0,1,956,126.92a67.92,67.92,0,0,1,66.41,0l2.85,1.66v-8.67h31.6V251.54ZM974,154.78h0A32.51,32.51,0,0,0,960.54,168a37,37,0,0,0-4.81,18.18A36.19,36.19,0,0,0,960.42,204a33.62,33.62,0,0,0,13.31,13.31,35.75,35.75,0,0,0,35.82,0,34.17,34.17,0,0,0,13.3-13.31,35.84,35.84,0,0,0,4.75-17.76,36.62,36.62,0,0,0-4.87-18.18,33,33,0,0,0-13.42-13.24,36.38,36.38,0,0,0-35.34,0Z"/><path class="cls-2" d="M1088.68,63.24a20.42,20.42,0,0,1,8.25,8.2A22.35,22.35,0,0,1,1097,93.6a20.43,20.43,0,0,1-8.19,8.19,22.43,22.43,0,0,1-22.1,0,20.39,20.39,0,0,1-8.2-8.19,22.16,22.16,0,0,1,.12-22.16,20.77,20.77,0,0,1,8.32-8.2,22.15,22.15,0,0,1,21.74,0Zm-26.44,188.3h0V119.91h31.6V251.54Z"/><path class="cls-2" d="M1192.76,211.62,1215,233.84a63.2,63.2,0,0,1-13.9,10.45,68.22,68.22,0,0,1-67.42,0,62.48,62.48,0,0,1-24.94-24.94,68.09,68.09,0,0,1,.23-67.54,62.22,62.22,0,0,1,25.19-24.89,67.81,67.81,0,0,1,66.35,0,61.57,61.57,0,0,1,15,11.17l-22.57,22.57a31.92,31.92,0,0,0-7.85-5.94,36.59,36.59,0,0,0-35.34.06A32.54,32.54,0,0,0,1136.27,168a37,37,0,0,0-4.81,18.18,36.19,36.19,0,0,0,4.69,17.76,33.65,33.65,0,0,0,13.3,13.31,36.31,36.31,0,0,0,17.88,4.81,35.69,35.69,0,0,0,17.94-4.87A32.59,32.59,0,0,0,1192.76,211.62Z"/><path class="cls-2" d="M1335.74,168.62l.71.71-83.27,48a33.47,33.47,0,0,0,17.46,4.75h.48a35.77,35.77,0,0,0,17.82-4.75,36.32,36.32,0,0,0,13.18-13.19,36.69,36.69,0,0,0,3.69-8.67l30.29,8.19a60.51,60.51,0,0,1-6.77,15.92A68.54,68.54,0,0,1,1271,253.32h-1.43a61.88,61.88,0,0,1-32.67-9.15,66.78,66.78,0,0,1-24.47-24.59,68.59,68.59,0,0,1-9.15-34v-.83a62.13,62.13,0,0,1,9.39-33.27,67.9,67.9,0,0,1,57.5-33.26h1.66a63.08,63.08,0,0,1,16.87,2.26,69.59,69.59,0,0,1,16,6.77,68.56,68.56,0,0,1,24.35,24,60.24,60.24,0,0,1,7.36,17.11l-.71.24Zm-100.26,22.69h0l57.61-33.38a31.32,31.32,0,0,0-4.27-3,38.1,38.1,0,0,0-15.21-4.76v-.11h-3a36.84,36.84,0,0,0-30.53,17.7,32,32,0,0,0-5,17.34V186A39.08,39.08,0,0,0,1235.48,191.31Z"/><path class="cls-2" d="M1477.18,251.54h-31.6V243c-.79.47-1.54.91-2.25,1.3a68.22,68.22,0,0,1-67.42,0,62.51,62.51,0,0,1-25-24.94,68.25,68.25,0,0,1,.18-67.54,61.71,61.71,0,0,1,25.18-24.89,67.92,67.92,0,0,1,66.41,0l2.85,1.66V80.47h31.6V251.54Zm-82.86-96.76h0A32.54,32.54,0,0,0,1380.9,168a37,37,0,0,0-4.81,18.18,36.19,36.19,0,0,0,4.69,17.76,33.65,33.65,0,0,0,13.3,13.31,35.75,35.75,0,0,0,35.82,0A34.2,34.2,0,0,0,1443.21,204,35.94,35.94,0,0,0,1448,186.2a36.72,36.72,0,0,0-4.87-18.18,33,33,0,0,0-13.43-13.24,36.38,36.38,0,0,0-35.34,0Z"/><path class="cls-2" d="M1550.32,118.25a69.3,69.3,0,0,1,33.14,8.67,62.42,62.42,0,0,1,25.3,24.89,67.66,67.66,0,0,1,.24,67.54,62.88,62.88,0,0,1-25,24.94,68.11,68.11,0,0,1-67.36,0,62.45,62.45,0,0,1-25-24.94,68.25,68.25,0,0,1,.18-67.54,61.71,61.71,0,0,1,25.18-24.89,69.53,69.53,0,0,1,33.27-8.67Zm-17.65,36.53h0A32.54,32.54,0,0,0,1519.25,168a37,37,0,0,0-4.81,18.18,36.19,36.19,0,0,0,4.69,17.76,33.62,33.62,0,0,0,13.31,13.31,35.73,35.73,0,0,0,35.81,0A34.13,34.13,0,0,0,1581.56,204a35.84,35.84,0,0,0,4.75-17.76,36.62,36.62,0,0,0-4.87-18.18A33,33,0,0,0,1568,154.78a36.4,36.4,0,0,0-35.35,0Z"/><path class="cls-1" d="M0,200.38H58.82v19.91c0,5.88,1.81,12.06,5.36,18.55A38.44,38.44,0,0,0,79.49,254a41.17,41.17,0,0,0,40.87,0,38.71,38.71,0,0,0,15.24-15.16A39.9,39.9,0,0,0,141,219.16V84L199.77,0V221.42a99.93,99.93,0,0,1-13.19,49.47,93.26,93.26,0,0,1-36.88,36.88A101.33,101.33,0,0,1,99.7,321q-25.9,0-49.62-13.27A93.26,93.26,0,0,1,13.2,270.89,99.83,99.83,0,0,1,0,221.42Z"/><path class="cls-2" d="M287.68,118.79a69.72,69.72,0,0,1,33.45,8.75,63.06,63.06,0,0,1,25.52,25.11,68.35,68.35,0,0,1,.24,68.08,63.21,63.21,0,0,1-25.23,25.15,68.57,68.57,0,0,1-67.92,0,62.52,62.52,0,0,1-25.15-25.15,68.8,68.8,0,0,1-9-33.77,69.63,69.63,0,0,1,9.12-34.31,61.75,61.75,0,0,1,25.4-25.11,69.88,69.88,0,0,1,33.53-8.75Zm0,32.22a37.69,37.69,0,0,0-17.79,4.62A33,33,0,0,0,256.35,169a37.35,37.35,0,0,0-4.82,18.36,36.66,36.66,0,0,0,4.7,17.92,34.18,34.18,0,0,0,13.41,13.41,36.3,36.3,0,0,0,36.15,0,34.66,34.66,0,0,0,13.42-13.41A36.33,36.33,0,0,0,324,187.32,36.93,36.93,0,0,0,319.08,169a33.26,33.26,0,0,0-13.53-13.33A37.53,37.53,0,0,0,287.68,151Z"/><path class="cls-2" d="M429.29,224.21a13.94,13.94,0,0,0,6.87-1.84,13.51,13.51,0,0,0,5.11-5.15,14.09,14.09,0,0,0-.08-13.78,12.72,12.72,0,0,0-5.16-5.12,14.16,14.16,0,0,0-6.74-1.8h-29a38,38,0,0,1-19.05-5.15A36.89,36.89,0,0,1,367,177.14a38.18,38.18,0,0,1-5.16-19,38.84,38.84,0,0,1,5.28-19.55,36.66,36.66,0,0,1,14.39-14.23,38.21,38.21,0,0,1,18.81-5H425a39.71,39.71,0,0,1,18.81,5,37,37,0,0,1,14.4,14.23,39.22,39.22,0,0,1,5.23,19.3h-31a7.58,7.58,0,0,0-1-3.72,7,7,0,0,0-2.86-2.74,7.49,7.49,0,0,0-1.68-.74,7.38,7.38,0,0,0-1.8-.24H400.42a7.54,7.54,0,0,0-3.73,1,6.54,6.54,0,0,0-2.82,2.74,7.54,7.54,0,0,0-1,3.84,7.43,7.43,0,0,0,1,3.72,6.77,6.77,0,0,0,2.82,2.74,7.54,7.54,0,0,0,3.73,1H430a43.83,43.83,0,0,1,21.47,5.73,43.29,43.29,0,0,1,16.64,16.6,45.43,45.43,0,0,1,6.1,22.7,45,45,0,0,1-5.93,22.33,42.46,42.46,0,0,1-16.6,16.6,45,45,0,0,1-22.5,6H402.67a43.68,43.68,0,0,1-21.92-6,42.52,42.52,0,0,1-16.65-16.6,44.63,44.63,0,0,1-6-22.33v-.12h31.16v.12a14.26,14.26,0,0,0,1.8,6.79,12.4,12.4,0,0,0,5.15,5.07,14.14,14.14,0,0,0,6.47,1.92Z"/><path class="cls-2" d="M608.77,169.58l.69.73-84,48.38a33.73,33.73,0,0,0,17.59,4.78h.49a35.85,35.85,0,0,0,17.95-4.78,36.45,36.45,0,0,0,13.33-13.29,38,38,0,0,0,3.72-8.75l30.55,8.26A62.32,62.32,0,0,1,602.31,221a69.3,69.3,0,0,1-58.85,34H542a62.19,62.19,0,0,1-33-9.24A67.35,67.35,0,0,1,484.41,221a69,69,0,0,1-9.24-34.27v-.86a62.45,62.45,0,0,1,9.49-33.53,68.24,68.24,0,0,1,58-33.53h1.67a62.26,62.26,0,0,1,17,2.29,70.88,70.88,0,0,1,16.16,6.78,69.3,69.3,0,0,1,24.57,24.21,60.6,60.6,0,0,1,7.4,17.26l-.69.25Zm-101.13,22.9,58.11-33.7a35.71,35.71,0,0,0-4.29-3A39.31,39.31,0,0,0,546.12,151v-.12h-3a37.44,37.44,0,0,0-17.71,5,37,37,0,0,0-13.09,12.84,32.16,32.16,0,0,0-5,17.46v.86A38.36,38.36,0,0,0,507.64,192.48Z"/></g></g></svg>